%FSLAX36Y36*%
G04 Gerber Fmt 3.6, Leading zero omitted, Abs format (unit inch)*
G04 Created by KiCad (PCBNEW (2014-jul-16 BZR unknown)-product) date Sun 02 Nov 2014 10:36:42 PM PST*
%MOIN*%
G01*
G04 APERTURE LIST*
%ADD10C,0.003937*%
%ADD11C,0.008000*%
%ADD12C,0.010000*%
%ADD13C,0.005906*%
%ADD14C,0.015000*%
%ADD15C,0.009850*%
%ADD16C,0.009900*%
G04 APERTURE END LIST*
D10*
D11*
X5536429Y-4493095D02*
X5513571Y-4493095D01*
X5525000Y-4493095D02*
X5525000Y-4453095D01*
X5521191Y-4458810D01*
X5517381Y-4462619D01*
X5513571Y-4464524D01*
X3986429Y-4493095D02*
X3963571Y-4493095D01*
X3975000Y-4493095D02*
X3975000Y-4453095D01*
X3971191Y-4458810D01*
X3967381Y-4462619D01*
X3963571Y-4464524D01*
D12*
X4372857Y-4004286D02*
X4327143Y-4004286D01*
X5522857Y-4004286D02*
X5477143Y-4004286D01*
X5500000Y-4027143D02*
X5500000Y-3981429D01*
D11*
X3937008Y-5905512D02*
X3937008Y-3937008D01*
X5905512Y-5905512D02*
X3937008Y-5905512D01*
X5905512Y-3937008D02*
X5905512Y-5905512D01*
X3937008Y-3937008D02*
X5905512Y-3937008D01*
X5032381Y-5003095D02*
X5055238Y-5003095D01*
X5043810Y-5043095D02*
X5043810Y-5003095D01*
X5083810Y-5041190D02*
X5080000Y-5043095D01*
X5072381Y-5043095D01*
X5068571Y-5041190D01*
X5066667Y-5037381D01*
X5066667Y-5022143D01*
X5068571Y-5018333D01*
X5072381Y-5016429D01*
X5080000Y-5016429D01*
X5083810Y-5018333D01*
X5085714Y-5022143D01*
X5085714Y-5025952D01*
X5066667Y-5029762D01*
X5102857Y-5043095D02*
X5102857Y-5016429D01*
X5102857Y-5024048D02*
X5104762Y-5020238D01*
X5106667Y-5018333D01*
X5110476Y-5016429D01*
X5114286Y-5016429D01*
X5127619Y-5043095D02*
X5127619Y-5016429D01*
X5127619Y-5020238D02*
X5129524Y-5018333D01*
X5133333Y-5016429D01*
X5139048Y-5016429D01*
X5142857Y-5018333D01*
X5144762Y-5022143D01*
X5144762Y-5043095D01*
X5144762Y-5022143D02*
X5146667Y-5018333D01*
X5150476Y-5016429D01*
X5156190Y-5016429D01*
X5160000Y-5018333D01*
X5161905Y-5022143D01*
X5161905Y-5043095D01*
X4989524Y-4928095D02*
X4997143Y-4928095D01*
X5000952Y-4930000D01*
X5004762Y-4933810D01*
X5006667Y-4941429D01*
X5006667Y-4954762D01*
X5004762Y-4962381D01*
X5000952Y-4966190D01*
X4997143Y-4968095D01*
X4989524Y-4968095D01*
X4985714Y-4966190D01*
X4981905Y-4962381D01*
X4980000Y-4954762D01*
X4980000Y-4941429D01*
X4981905Y-4933810D01*
X4985714Y-4930000D01*
X4989524Y-4928095D01*
X5023810Y-4968095D02*
X5023810Y-4928095D01*
X5046667Y-4968095D01*
X5046667Y-4928095D01*
X5134286Y-4928095D02*
X5141905Y-4928095D01*
X5145714Y-4930000D01*
X5149524Y-4933810D01*
X5151429Y-4941429D01*
X5151429Y-4954762D01*
X5149524Y-4962381D01*
X5145714Y-4966190D01*
X5141905Y-4968095D01*
X5134286Y-4968095D01*
X5130476Y-4966190D01*
X5126667Y-4962381D01*
X5124762Y-4954762D01*
X5124762Y-4941429D01*
X5126667Y-4933810D01*
X5130476Y-4930000D01*
X5134286Y-4928095D01*
X5181905Y-4947143D02*
X5168571Y-4947143D01*
X5168571Y-4968095D02*
X5168571Y-4928095D01*
X5187619Y-4928095D01*
X5216190Y-4947143D02*
X5202857Y-4947143D01*
X5202857Y-4968095D02*
X5202857Y-4928095D01*
X5221905Y-4928095D01*
D12*
X4829762Y-5747619D02*
X4829762Y-5697619D01*
X4846429Y-5733333D01*
X4863095Y-5697619D01*
X4863095Y-5747619D01*
X4886905Y-5747619D02*
X4886905Y-5697619D01*
X4905952Y-5697619D01*
X4910714Y-5700000D01*
X4913095Y-5702381D01*
X4915476Y-5707143D01*
X4915476Y-5714286D01*
X4913095Y-5719048D01*
X4910714Y-5721429D01*
X4905952Y-5723810D01*
X4886905Y-5723810D01*
X4932143Y-5697619D02*
X4944048Y-5747619D01*
X4953571Y-5711905D01*
X4963095Y-5747619D01*
X4975000Y-5697619D01*
X5022619Y-5747619D02*
X5005952Y-5723810D01*
X4994048Y-5747619D02*
X4994048Y-5697619D01*
X5013095Y-5697619D01*
X5017857Y-5700000D01*
X5020238Y-5702381D01*
X5022619Y-5707143D01*
X5022619Y-5714286D01*
X5020238Y-5719048D01*
X5017857Y-5721429D01*
X5013095Y-5723810D01*
X4994048Y-5723810D01*
X4861905Y-4147619D02*
X4838095Y-4147619D01*
X4838095Y-4097619D01*
X4878571Y-4147619D02*
X4878571Y-4097619D01*
X4897619Y-4097619D01*
X4902381Y-4100000D01*
X4904762Y-4102381D01*
X4907143Y-4107143D01*
X4907143Y-4114286D01*
X4904762Y-4119048D01*
X4902381Y-4121429D01*
X4897619Y-4123810D01*
X4878571Y-4123810D01*
X4923810Y-4097619D02*
X4935714Y-4147619D01*
X4945238Y-4111905D01*
X4954762Y-4147619D01*
X4966667Y-4097619D01*
X5014286Y-4147619D02*
X4997619Y-4123810D01*
X4985714Y-4147619D02*
X4985714Y-4097619D01*
X5004762Y-4097619D01*
X5009524Y-4100000D01*
X5011905Y-4102381D01*
X5014286Y-4107143D01*
X5014286Y-4114286D01*
X5011905Y-4119048D01*
X5009524Y-4121429D01*
X5004762Y-4123810D01*
X4985714Y-4123810D01*
X5022857Y-4004286D02*
X4977143Y-4004286D01*
X4872857Y-4004286D02*
X4827143Y-4004286D01*
X4850000Y-4027143D02*
X4850000Y-3981429D01*
X4872857Y-5854286D02*
X4827143Y-5854286D01*
X4372857Y-5829286D02*
X4327143Y-5829286D01*
X4350000Y-5852143D02*
X4350000Y-5806429D01*
X5022857Y-5854286D02*
X4977143Y-5854286D01*
X5000000Y-5877143D02*
X5000000Y-5831429D01*
X5522857Y-5879286D02*
X5477143Y-5879286D01*
D11*
X3977381Y-5368429D02*
X3984524Y-5370810D01*
X3986905Y-5373190D01*
X3989286Y-5377952D01*
X3989286Y-5385095D01*
X3986905Y-5389857D01*
X3984524Y-5392238D01*
X3979762Y-5394619D01*
X3960714Y-5394619D01*
X3960714Y-5344619D01*
X3977381Y-5344619D01*
X3982143Y-5347000D01*
X3984524Y-5349381D01*
X3986905Y-5354143D01*
X3986905Y-5358905D01*
X3984524Y-5363667D01*
X3982143Y-5366048D01*
X3977381Y-5368429D01*
X3960714Y-5368429D01*
X4032143Y-5361286D02*
X4032143Y-5394619D01*
X4010714Y-5361286D02*
X4010714Y-5387476D01*
X4013095Y-5392238D01*
X4017857Y-5394619D01*
X4025000Y-5394619D01*
X4029762Y-5392238D01*
X4032143Y-5389857D01*
X4053571Y-5392238D02*
X4058333Y-5394619D01*
X4067857Y-5394619D01*
X4072619Y-5392238D01*
X4075000Y-5387476D01*
X4075000Y-5385095D01*
X4072619Y-5380333D01*
X4067857Y-5377952D01*
X4060714Y-5377952D01*
X4055952Y-5375571D01*
X4053571Y-5370810D01*
X4053571Y-5368429D01*
X4055952Y-5363667D01*
X4060714Y-5361286D01*
X4067857Y-5361286D01*
X4072619Y-5363667D01*
X4084524Y-5399381D02*
X4122619Y-5399381D01*
X4132143Y-5392238D02*
X4139286Y-5394619D01*
X4151190Y-5394619D01*
X4155952Y-5392238D01*
X4158333Y-5389857D01*
X4160714Y-5385095D01*
X4160714Y-5380333D01*
X4158333Y-5375571D01*
X4155952Y-5373190D01*
X4151190Y-5370810D01*
X4141667Y-5368429D01*
X4136905Y-5366048D01*
X4134524Y-5363667D01*
X4132143Y-5358905D01*
X4132143Y-5354143D01*
X4134524Y-5349381D01*
X4136905Y-5347000D01*
X4141667Y-5344619D01*
X4153571Y-5344619D01*
X4160714Y-5347000D01*
X4182143Y-5361286D02*
X4182143Y-5411286D01*
X4182143Y-5363667D02*
X4186905Y-5361286D01*
X4196429Y-5361286D01*
X4201190Y-5363667D01*
X4203571Y-5366048D01*
X4205952Y-5370810D01*
X4205952Y-5385095D01*
X4203571Y-5389857D01*
X4201190Y-5392238D01*
X4196429Y-5394619D01*
X4186905Y-5394619D01*
X4182143Y-5392238D01*
X4234524Y-5394619D02*
X4229762Y-5392238D01*
X4227381Y-5387476D01*
X4227381Y-5344619D01*
X4253571Y-5394619D02*
X4253571Y-5361286D01*
X4253571Y-5344619D02*
X4251191Y-5347000D01*
X4253571Y-5349381D01*
X4255952Y-5347000D01*
X4253571Y-5344619D01*
X4253571Y-5349381D01*
X4298810Y-5392238D02*
X4294048Y-5394619D01*
X4284524Y-5394619D01*
X4279762Y-5392238D01*
X4277381Y-5389857D01*
X4275000Y-5385095D01*
X4275000Y-5370810D01*
X4277381Y-5366048D01*
X4279762Y-5363667D01*
X4284524Y-5361286D01*
X4294048Y-5361286D01*
X4298810Y-5363667D01*
X4339286Y-5392238D02*
X4334524Y-5394619D01*
X4325000Y-5394619D01*
X4320238Y-5392238D01*
X4317857Y-5387476D01*
X4317857Y-5368429D01*
X4320238Y-5363667D01*
X4325000Y-5361286D01*
X4334524Y-5361286D01*
X4339286Y-5363667D01*
X4341667Y-5368429D01*
X4341667Y-5373190D01*
X4317857Y-5377952D01*
X4072619Y-5472619D02*
X4055952Y-5448810D01*
X4044048Y-5472619D02*
X4044048Y-5422619D01*
X4063095Y-5422619D01*
X4067857Y-5425000D01*
X4070238Y-5427381D01*
X4072619Y-5432143D01*
X4072619Y-5439286D01*
X4070238Y-5444048D01*
X4067857Y-5446429D01*
X4063095Y-5448810D01*
X4044048Y-5448810D01*
X4113095Y-5470238D02*
X4108333Y-5472619D01*
X4098810Y-5472619D01*
X4094048Y-5470238D01*
X4091667Y-5465476D01*
X4091667Y-5446429D01*
X4094048Y-5441667D01*
X4098810Y-5439286D01*
X4108333Y-5439286D01*
X4113095Y-5441667D01*
X4115476Y-5446429D01*
X4115476Y-5451190D01*
X4091667Y-5455952D01*
X4132143Y-5439286D02*
X4144048Y-5472619D01*
X4155952Y-5439286D01*
X4175000Y-5467857D02*
X4177381Y-5470238D01*
X4175000Y-5472619D01*
X4172619Y-5470238D01*
X4175000Y-5467857D01*
X4175000Y-5472619D01*
X4234524Y-5458333D02*
X4258333Y-5458333D01*
X4229762Y-5472619D02*
X4246429Y-5422619D01*
X4263095Y-5472619D01*
X3972619Y-5505381D02*
X3975000Y-5503000D01*
X3979762Y-5500619D01*
X3991667Y-5500619D01*
X3996429Y-5503000D01*
X3998810Y-5505381D01*
X4001190Y-5510143D01*
X4001190Y-5514905D01*
X3998810Y-5522048D01*
X3970238Y-5550619D01*
X4001190Y-5550619D01*
X4022619Y-5550619D02*
X4022619Y-5500619D01*
X4051190Y-5550619D01*
X4051190Y-5500619D01*
X4082143Y-5550619D02*
X4077381Y-5548238D01*
X4075000Y-5545857D01*
X4072619Y-5541095D01*
X4072619Y-5526810D01*
X4075000Y-5522048D01*
X4077381Y-5519667D01*
X4082143Y-5517286D01*
X4089286Y-5517286D01*
X4094048Y-5519667D01*
X4096429Y-5522048D01*
X4098810Y-5526810D01*
X4098810Y-5541095D01*
X4096429Y-5545857D01*
X4094048Y-5548238D01*
X4089286Y-5550619D01*
X4082143Y-5550619D01*
X4115476Y-5517286D02*
X4127381Y-5550619D01*
X4139286Y-5517286D01*
X4155952Y-5505381D02*
X4158333Y-5503000D01*
X4163095Y-5500619D01*
X4175000Y-5500619D01*
X4179762Y-5503000D01*
X4182143Y-5505381D01*
X4184524Y-5510143D01*
X4184524Y-5514905D01*
X4182143Y-5522048D01*
X4153571Y-5550619D01*
X4184524Y-5550619D01*
X4215476Y-5500619D02*
X4220238Y-5500619D01*
X4225000Y-5503000D01*
X4227381Y-5505381D01*
X4229762Y-5510143D01*
X4232143Y-5519667D01*
X4232143Y-5531571D01*
X4229762Y-5541095D01*
X4227381Y-5545857D01*
X4225000Y-5548238D01*
X4220238Y-5550619D01*
X4215476Y-5550619D01*
X4210714Y-5548238D01*
X4208333Y-5545857D01*
X4205952Y-5541095D01*
X4203571Y-5531571D01*
X4203571Y-5519667D01*
X4205952Y-5510143D01*
X4208333Y-5505381D01*
X4210714Y-5503000D01*
X4215476Y-5500619D01*
X4279762Y-5550619D02*
X4251191Y-5550619D01*
X4265476Y-5550619D02*
X4265476Y-5500619D01*
X4260714Y-5507762D01*
X4255952Y-5512524D01*
X4251191Y-5514905D01*
X4322619Y-5517286D02*
X4322619Y-5550619D01*
X4310714Y-5498238D02*
X4298810Y-5533952D01*
X4329762Y-5533952D01*
D12*
X5050000Y-4900000D02*
X5250000Y-4900000D01*
X5250000Y-4900000D02*
X5250000Y-4800000D01*
X5250000Y-4800000D02*
X5050000Y-4800000D01*
X4950000Y-4800000D02*
X5050000Y-4800000D01*
X5050000Y-4800000D02*
X5050000Y-4900000D01*
X4950000Y-4800000D02*
X4950000Y-4900000D01*
X4950000Y-4900000D02*
X5050000Y-4900000D01*
D13*
X3930000Y-4725000D02*
X3960000Y-4705000D01*
X3930000Y-4725000D02*
X3960000Y-4745000D01*
D12*
X3960000Y-5015000D02*
X3980000Y-5015000D01*
X3980000Y-5015000D02*
X3980000Y-4835000D01*
X3980000Y-4835000D02*
X3960000Y-4835000D01*
X4340000Y-4525000D02*
X4340000Y-5325000D01*
X4340000Y-5325000D02*
X3960000Y-5325000D01*
X3960000Y-5325000D02*
X3960000Y-4525000D01*
X3960000Y-4525000D02*
X4340000Y-4525000D01*
D11*
X4796850Y-5890354D02*
X4796850Y-5595079D01*
X4796850Y-5595079D02*
X4403150Y-5595079D01*
X4403150Y-5595079D02*
X4403150Y-5890354D01*
X4403150Y-5890354D02*
X4796850Y-5890354D01*
X5446850Y-5890354D02*
X5446850Y-5595079D01*
X5446850Y-5595079D02*
X5053150Y-5595079D01*
X5053150Y-5595079D02*
X5053150Y-5890354D01*
X5053150Y-5890354D02*
X5446850Y-5890354D01*
X4403150Y-3959646D02*
X4403150Y-4254921D01*
X4403150Y-4254921D02*
X4796850Y-4254921D01*
X4796850Y-4254921D02*
X4796850Y-3959646D01*
X4796850Y-3959646D02*
X4403150Y-3959646D01*
X5053150Y-3959646D02*
X5053150Y-4254921D01*
X5053150Y-4254921D02*
X5446850Y-4254921D01*
X5446850Y-4254921D02*
X5446850Y-3959646D01*
X5446850Y-3959646D02*
X5053150Y-3959646D01*
D13*
X5480000Y-4725000D02*
X5510000Y-4705000D01*
X5480000Y-4725000D02*
X5510000Y-4745000D01*
D12*
X5510000Y-5015000D02*
X5530000Y-5015000D01*
X5530000Y-5015000D02*
X5530000Y-4835000D01*
X5530000Y-4835000D02*
X5510000Y-4835000D01*
X5890000Y-4525000D02*
X5890000Y-5325000D01*
X5890000Y-5325000D02*
X5510000Y-5325000D01*
X5510000Y-5325000D02*
X5510000Y-4525000D01*
X5510000Y-4525000D02*
X5890000Y-4525000D01*
D14*
X5130000Y-5400000D02*
X5185000Y-5400000D01*
X5130000Y-5300000D02*
X5185000Y-5300000D01*
X5130000Y-5200000D02*
X5185000Y-5200000D01*
X4713995Y-5300000D02*
G75*
G03X4713995Y-5300000I-98995J0D01*
G74*
G01*
X4795000Y-5090000D02*
X4480000Y-5090000D01*
X4480000Y-5090000D02*
X4480000Y-5510000D01*
X4480000Y-5510000D02*
X4795000Y-5510000D01*
X5130000Y-5090000D02*
X4795000Y-5090000D01*
X4795000Y-5090000D02*
X4795000Y-5510000D01*
X4795000Y-5510000D02*
X5130000Y-5510000D01*
X5130000Y-5300000D02*
X5130000Y-5510000D01*
X5130000Y-5300000D02*
X5130000Y-5090000D01*
X5130000Y-4650000D02*
X5185000Y-4650000D01*
X5130000Y-4550000D02*
X5185000Y-4550000D01*
X5130000Y-4450000D02*
X5185000Y-4450000D01*
X4713995Y-4550000D02*
G75*
G03X4713995Y-4550000I-98995J0D01*
G74*
G01*
X4795000Y-4340000D02*
X4480000Y-4340000D01*
X4480000Y-4340000D02*
X4480000Y-4760000D01*
X4480000Y-4760000D02*
X4795000Y-4760000D01*
X5130000Y-4340000D02*
X4795000Y-4340000D01*
X4795000Y-4340000D02*
X4795000Y-4760000D01*
X4795000Y-4760000D02*
X5130000Y-4760000D01*
X5130000Y-4550000D02*
X5130000Y-4760000D01*
X5130000Y-4550000D02*
X5130000Y-4340000D01*
D13*
X4525000Y-4850000D02*
X4475000Y-4850000D01*
X4725000Y-4850000D02*
X4775000Y-4850000D01*
X4725000Y-4900000D02*
X4725000Y-4800000D01*
X4725000Y-4800000D02*
X4525000Y-4800000D01*
X4525000Y-4800000D02*
X4525000Y-4900000D01*
X4525000Y-4900000D02*
X4725000Y-4900000D01*
D11*
X5366000Y-5064000D02*
X5366000Y-5536000D01*
X5366000Y-5536000D02*
X5484000Y-5536000D01*
X5484000Y-5536000D02*
X5484000Y-5064000D01*
X5484000Y-5064000D02*
X5366000Y-5064000D01*
X5366000Y-4314000D02*
X5366000Y-4786000D01*
X5366000Y-4786000D02*
X5484000Y-4786000D01*
X5484000Y-4786000D02*
X5484000Y-4314000D01*
X5484000Y-4314000D02*
X5366000Y-4314000D01*
X5286667Y-4828095D02*
X5286667Y-4856667D01*
X5284762Y-4862381D01*
X5280952Y-4866190D01*
X5275238Y-4868095D01*
X5271429Y-4868095D01*
X5326667Y-4868095D02*
X5303810Y-4868095D01*
X5315238Y-4868095D02*
X5315238Y-4828095D01*
X5311429Y-4833810D01*
X5307619Y-4837619D01*
X5303810Y-4839524D01*
X4119524Y-4493095D02*
X4119524Y-4453095D01*
X4142381Y-4493095D01*
X4142381Y-4453095D01*
X4182381Y-4493095D02*
X4159524Y-4493095D01*
X4170952Y-4493095D02*
X4170952Y-4453095D01*
X4167143Y-4458810D01*
X4163333Y-4462619D01*
X4159524Y-4464524D01*
X4569524Y-5568095D02*
X4569524Y-5528095D01*
X4592381Y-5568095D01*
X4592381Y-5528095D01*
X4609524Y-5531905D02*
X4611429Y-5530000D01*
X4615238Y-5528095D01*
X4624762Y-5528095D01*
X4628571Y-5530000D01*
X4630476Y-5531905D01*
X4632381Y-5535714D01*
X4632381Y-5539524D01*
X4630476Y-5545238D01*
X4607619Y-5568095D01*
X4632381Y-5568095D01*
X5219524Y-5568095D02*
X5219524Y-5528095D01*
X5242381Y-5568095D01*
X5242381Y-5528095D01*
X5257619Y-5528095D02*
X5282381Y-5528095D01*
X5269048Y-5543333D01*
X5274762Y-5543333D01*
X5278571Y-5545238D01*
X5280476Y-5547143D01*
X5282381Y-5550952D01*
X5282381Y-5560476D01*
X5280476Y-5564286D01*
X5278571Y-5566190D01*
X5274762Y-5568095D01*
X5263333Y-5568095D01*
X5259524Y-5566190D01*
X5257619Y-5564286D01*
X4569524Y-4318095D02*
X4569524Y-4278095D01*
X4592381Y-4318095D01*
X4592381Y-4278095D01*
X4628571Y-4291429D02*
X4628571Y-4318095D01*
X4619048Y-4276190D02*
X4609524Y-4304762D01*
X4634286Y-4304762D01*
X5219524Y-4318095D02*
X5219524Y-4278095D01*
X5242381Y-4318095D01*
X5242381Y-4278095D01*
X5280476Y-4278095D02*
X5261429Y-4278095D01*
X5259524Y-4297143D01*
X5261429Y-4295238D01*
X5265238Y-4293333D01*
X5274762Y-4293333D01*
X5278571Y-4295238D01*
X5280476Y-4297143D01*
X5282381Y-4300952D01*
X5282381Y-4310476D01*
X5280476Y-4314286D01*
X5278571Y-4316190D01*
X5274762Y-4318095D01*
X5265238Y-4318095D01*
X5261429Y-4316190D01*
X5259524Y-4314286D01*
X5671524Y-5380095D02*
X5671524Y-5340095D01*
X5694381Y-5380095D01*
X5694381Y-5340095D01*
X5730571Y-5340095D02*
X5722952Y-5340095D01*
X5719143Y-5342000D01*
X5717238Y-5343905D01*
X5713429Y-5349619D01*
X5711524Y-5357238D01*
X5711524Y-5372476D01*
X5713429Y-5376286D01*
X5715333Y-5378190D01*
X5719143Y-5380095D01*
X5726762Y-5380095D01*
X5730571Y-5378190D01*
X5732476Y-5376286D01*
X5734381Y-5372476D01*
X5734381Y-5362952D01*
X5732476Y-5359143D01*
X5730571Y-5357238D01*
X5726762Y-5355333D01*
X5719143Y-5355333D01*
X5715333Y-5357238D01*
X5713429Y-5359143D01*
X5711524Y-5362952D01*
X4414890Y-5308105D02*
X4411081Y-5306200D01*
X4407271Y-5302390D01*
X4401557Y-5296676D01*
X4397748Y-5294771D01*
X4393938Y-5294771D01*
X4395843Y-5304295D02*
X4392033Y-5302390D01*
X4388224Y-5298581D01*
X4386319Y-5290962D01*
X4386319Y-5277629D01*
X4388224Y-5270010D01*
X4392033Y-5266200D01*
X4395843Y-5264295D01*
X4403462Y-5264295D01*
X4407271Y-5266200D01*
X4411081Y-5270010D01*
X4412986Y-5277629D01*
X4412986Y-5290962D01*
X4411081Y-5298581D01*
X4407271Y-5302390D01*
X4403462Y-5304295D01*
X4395843Y-5304295D01*
X4451081Y-5304295D02*
X4428224Y-5304295D01*
X4439652Y-5304295D02*
X4439652Y-5264295D01*
X4435843Y-5270010D01*
X4432033Y-5273819D01*
X4428224Y-5275724D01*
D15*
X5055300Y-5389681D02*
X5053424Y-5393433D01*
X5053424Y-5399062D01*
X5055300Y-5404690D01*
X5059052Y-5408443D01*
X5062805Y-5410319D01*
X5070310Y-5412195D01*
X5075938Y-5412195D01*
X5083443Y-5410319D01*
X5087195Y-5408443D01*
X5090948Y-5404690D01*
X5092824Y-5399062D01*
X5092824Y-5395310D01*
X5090948Y-5389681D01*
X5089071Y-5387805D01*
X5075938Y-5387805D01*
X5075938Y-5395310D01*
D16*
D15*
X5090948Y-5211257D02*
X5092824Y-5205629D01*
X5092824Y-5196248D01*
X5090948Y-5192495D01*
X5089071Y-5190619D01*
X5085319Y-5188743D01*
X5081567Y-5188743D01*
X5077814Y-5190619D01*
X5075938Y-5192495D01*
X5074062Y-5196248D01*
X5072186Y-5203752D01*
X5070310Y-5207505D01*
X5068433Y-5209381D01*
X5064681Y-5211257D01*
X5060929Y-5211257D01*
X5057176Y-5209381D01*
X5055300Y-5207505D01*
X5053424Y-5203752D01*
X5053424Y-5194371D01*
X5055300Y-5188743D01*
D16*
D15*
X5092824Y-5310319D02*
X5053424Y-5310319D01*
X5053424Y-5300938D01*
X5055300Y-5295310D01*
X5059052Y-5291557D01*
X5062805Y-5289681D01*
X5070310Y-5287805D01*
X5075938Y-5287805D01*
X5083443Y-5289681D01*
X5087195Y-5291557D01*
X5090948Y-5295310D01*
X5092824Y-5300938D01*
X5092824Y-5310319D01*
D16*
D11*
X4414890Y-4558105D02*
X4411081Y-4556200D01*
X4407271Y-4552390D01*
X4401557Y-4546676D01*
X4397748Y-4544771D01*
X4393938Y-4544771D01*
X4395843Y-4554295D02*
X4392033Y-4552390D01*
X4388224Y-4548581D01*
X4386319Y-4540962D01*
X4386319Y-4527629D01*
X4388224Y-4520010D01*
X4392033Y-4516200D01*
X4395843Y-4514295D01*
X4403462Y-4514295D01*
X4407271Y-4516200D01*
X4411081Y-4520010D01*
X4412986Y-4527629D01*
X4412986Y-4540962D01*
X4411081Y-4548581D01*
X4407271Y-4552390D01*
X4403462Y-4554295D01*
X4395843Y-4554295D01*
X4428224Y-4518105D02*
X4430129Y-4516200D01*
X4433938Y-4514295D01*
X4443462Y-4514295D01*
X4447271Y-4516200D01*
X4449176Y-4518105D01*
X4451081Y-4521914D01*
X4451081Y-4525724D01*
X4449176Y-4531438D01*
X4426319Y-4554295D01*
X4451081Y-4554295D01*
D15*
X5055300Y-4639681D02*
X5053424Y-4643433D01*
X5053424Y-4649062D01*
X5055300Y-4654690D01*
X5059052Y-4658443D01*
X5062805Y-4660319D01*
X5070310Y-4662195D01*
X5075938Y-4662195D01*
X5083443Y-4660319D01*
X5087195Y-4658443D01*
X5090948Y-4654690D01*
X5092824Y-4649062D01*
X5092824Y-4645310D01*
X5090948Y-4639681D01*
X5089071Y-4637805D01*
X5075938Y-4637805D01*
X5075938Y-4645310D01*
D16*
D15*
X5090948Y-4461257D02*
X5092824Y-4455629D01*
X5092824Y-4446248D01*
X5090948Y-4442495D01*
X5089071Y-4440619D01*
X5085319Y-4438743D01*
X5081567Y-4438743D01*
X5077814Y-4440619D01*
X5075938Y-4442495D01*
X5074062Y-4446248D01*
X5072186Y-4453752D01*
X5070310Y-4457505D01*
X5068433Y-4459381D01*
X5064681Y-4461257D01*
X5060929Y-4461257D01*
X5057176Y-4459381D01*
X5055300Y-4457505D01*
X5053424Y-4453752D01*
X5053424Y-4444371D01*
X5055300Y-4438743D01*
D16*
D15*
X5092824Y-4560319D02*
X5053424Y-4560319D01*
X5053424Y-4550938D01*
X5055300Y-4545310D01*
X5059052Y-4541557D01*
X5062805Y-4539681D01*
X5070310Y-4537805D01*
X5075938Y-4537805D01*
X5083443Y-4539681D01*
X5087195Y-4541557D01*
X5090948Y-4545310D01*
X5092824Y-4550938D01*
X5092824Y-4560319D01*
D16*
D11*
X4619514Y-4959828D02*
X4606181Y-4940780D01*
X4596657Y-4959828D02*
X4596657Y-4919828D01*
X4611895Y-4919828D01*
X4615705Y-4921732D01*
X4617610Y-4923637D01*
X4619514Y-4927447D01*
X4619514Y-4933161D01*
X4617610Y-4936970D01*
X4615705Y-4938875D01*
X4611895Y-4940780D01*
X4596657Y-4940780D01*
X4657610Y-4959828D02*
X4634753Y-4959828D01*
X4646181Y-4959828D02*
X4646181Y-4919828D01*
X4642372Y-4925542D01*
X4638562Y-4929351D01*
X4634753Y-4931256D01*
X5518333Y-5468095D02*
X5505000Y-5449048D01*
X5495476Y-5468095D02*
X5495476Y-5428095D01*
X5510714Y-5428095D01*
X5514524Y-5430000D01*
X5516429Y-5431905D01*
X5518333Y-5435714D01*
X5518333Y-5441429D01*
X5516429Y-5445238D01*
X5514524Y-5447143D01*
X5510714Y-5449048D01*
X5495476Y-5449048D01*
X5533571Y-5431905D02*
X5535476Y-5430000D01*
X5539286Y-5428095D01*
X5548810Y-5428095D01*
X5552619Y-5430000D01*
X5554524Y-5431905D01*
X5556429Y-5435714D01*
X5556429Y-5439524D01*
X5554524Y-5445238D01*
X5531667Y-5468095D01*
X5556429Y-5468095D01*
X5518333Y-4393095D02*
X5505000Y-4374048D01*
X5495476Y-4393095D02*
X5495476Y-4353095D01*
X5510714Y-4353095D01*
X5514524Y-4355000D01*
X5516429Y-4356905D01*
X5518333Y-4360714D01*
X5518333Y-4366429D01*
X5516429Y-4370238D01*
X5514524Y-4372143D01*
X5510714Y-4374048D01*
X5495476Y-4374048D01*
X5531667Y-4353095D02*
X5556429Y-4353095D01*
X5543095Y-4368333D01*
X5548810Y-4368333D01*
X5552619Y-4370238D01*
X5554524Y-4372143D01*
X5556429Y-4375952D01*
X5556429Y-4385476D01*
X5554524Y-4389286D01*
X5552619Y-4391190D01*
X5548810Y-4393095D01*
X5537381Y-4393095D01*
X5533571Y-4391190D01*
X5531667Y-4389286D01*
X5678185Y-5726757D02*
X5678185Y-5686757D01*
X5678185Y-5705804D02*
X5701042Y-5705804D01*
X5701042Y-5726757D02*
X5701042Y-5686757D01*
X5737233Y-5700090D02*
X5737233Y-5726757D01*
X5727709Y-5684852D02*
X5718185Y-5713423D01*
X5742947Y-5713423D01*
X4103382Y-5726757D02*
X4103382Y-5686757D01*
X4103382Y-5705804D02*
X4126239Y-5705804D01*
X4126239Y-5726757D02*
X4126239Y-5686757D01*
X4141477Y-5686757D02*
X4166239Y-5686757D01*
X4152906Y-5701995D01*
X4158620Y-5701995D01*
X4162430Y-5703900D01*
X4164334Y-5705804D01*
X4166239Y-5709614D01*
X4166239Y-5719138D01*
X4164334Y-5722947D01*
X4162430Y-5724852D01*
X4158620Y-5726757D01*
X4147192Y-5726757D01*
X4143382Y-5724852D01*
X4141477Y-5722947D01*
X5678185Y-4151954D02*
X5678185Y-4111954D01*
X5678185Y-4131001D02*
X5701042Y-4131001D01*
X5701042Y-4151954D02*
X5701042Y-4111954D01*
X5718185Y-4115763D02*
X5720090Y-4113858D01*
X5723900Y-4111954D01*
X5733423Y-4111954D01*
X5737233Y-4113858D01*
X5739138Y-4115763D01*
X5741042Y-4119573D01*
X5741042Y-4123382D01*
X5739138Y-4129096D01*
X5716280Y-4151954D01*
X5741042Y-4151954D01*
X4103382Y-4151954D02*
X4103382Y-4111954D01*
X4103382Y-4131001D02*
X4126239Y-4131001D01*
X4126239Y-4151954D02*
X4126239Y-4111954D01*
X4166239Y-4151954D02*
X4143382Y-4151954D01*
X4154811Y-4151954D02*
X4154811Y-4111954D01*
X4151001Y-4117668D01*
X4147192Y-4121477D01*
X4143382Y-4123382D01*
M02*
