%FSLAX36Y36*%
G04 Gerber Fmt 3.6, Leading zero omitted, Abs format (unit inch)*
G04 Created by KiCad (PCBNEW (2014-jul-16 BZR unknown)-product) date Sun 02 Nov 2014 10:36:42 PM PST*
%MOIN*%
G01*
G04 APERTURE LIST*
%ADD10C,0.003937*%
%ADD11R,0.068000X0.068000*%
%ADD12C,0.068000*%
%ADD13R,0.060000X0.060000*%
%ADD14C,0.060000*%
%ADD15C,0.080000*%
%ADD16O,0.137800X0.066900*%
%ADD17R,0.620000X0.380000*%
%ADD18C,0.078700*%
%ADD19C,0.236220*%
G04 APERTURE END LIST*
D10*
D11*
X5000000Y-4850000D03*
D12*
X5100000Y-4850000D03*
X5200000Y-4850000D03*
D13*
X4100000Y-4725000D03*
D14*
X4200000Y-4725000D03*
X4100000Y-4825000D03*
X4200000Y-4825000D03*
X4100000Y-4925000D03*
X4200000Y-4925000D03*
X4100000Y-5025000D03*
X4200000Y-5025000D03*
X4100000Y-5125000D03*
X4200000Y-5125000D03*
D15*
X4698425Y-5725000D03*
X4501575Y-5725000D03*
X5348425Y-5725000D03*
X5151575Y-5725000D03*
X4501575Y-4125000D03*
X4698425Y-4125000D03*
X5151575Y-4125000D03*
X5348425Y-4125000D03*
D13*
X5650000Y-4725000D03*
D14*
X5750000Y-4725000D03*
X5650000Y-4825000D03*
X5750000Y-4825000D03*
X5650000Y-4925000D03*
X5750000Y-4925000D03*
X5650000Y-5025000D03*
X5750000Y-5025000D03*
X5650000Y-5125000D03*
X5750000Y-5125000D03*
D16*
X5275000Y-5300000D03*
X5275000Y-5400000D03*
X5275000Y-5200000D03*
D17*
X4805000Y-5300000D03*
D16*
X5275000Y-4550000D03*
X5275000Y-4650000D03*
X5275000Y-4450000D03*
D17*
X4805000Y-4550000D03*
D18*
X4825000Y-4850000D03*
X4425000Y-4850000D03*
D15*
X5425000Y-5199500D03*
X5425000Y-5400500D03*
X5425000Y-4449500D03*
X5425000Y-4650500D03*
D19*
X5708661Y-5708661D03*
X4133858Y-5708661D03*
X5708661Y-4133858D03*
X4133858Y-4133858D03*
M02*
