M48
;DRILL file {kicad (2014-jul-16 BZR unknown)-product} date Sun 02 Nov 2014 07:29:55 PM PST
;FORMAT={2:4/ absolute / inch / suppress leading zeros}
FMAT,2
INCH,TZ
T1C0.039
T2C0.040
T3C0.125
T4C0.150
%
G90
G05
M72
T1
X44250Y-48500
X48250Y-48500
X52750Y-44500
X52750Y-45500
X52750Y-46500
X52750Y-52000
X52750Y-53000
X52750Y-54000
T2
X41000Y-47250
X41000Y-48250
X41000Y-49250
X41000Y-50250
X41000Y-51250
X42000Y-47250
X42000Y-48250
X42000Y-49250
X42000Y-50250
X42000Y-51250
X45016Y-41250
X45016Y-57250
X46984Y-41250
X46984Y-57250
X50000Y-48500
X51000Y-48500
X51516Y-41250
X51516Y-57250
X52000Y-48500
X53484Y-41250
X53484Y-57250
X54250Y-44495
X54250Y-46505
X54250Y-51995
X54250Y-54005
X56500Y-47250
X56500Y-48250
X56500Y-49250
X56500Y-50250
X56500Y-51250
X57500Y-47250
X57500Y-48250
X57500Y-49250
X57500Y-50250
X57500Y-51250
T3
X41339Y-41339
X41339Y-57087
X57087Y-41339
X57087Y-57087
T4
X46150Y-45500
X46150Y-53000
T0
M30
