M48
;DRILL file {kicad (2014-jul-16 BZR unknown)-product} date Tue 27 Jan 2015 08:41:59 AM PST
;FORMAT={2:4/ absolute / inch / suppress leading zeros}
FMAT,2
INCH,TZ
T1C0.025
T2C0.039
T3C0.040
T4C0.125
T5C0.150
%
G90
G05
M72
T1
X41000Y-48250
T2
X44250Y-48500
X48250Y-48500
X51750Y-44500
X51750Y-45500
X51750Y-46500
X51750Y-52000
X51750Y-53000
X51750Y-54000
T3
X41000Y-47250
X41000Y-48250
X41000Y-49250
X41000Y-50250
X41000Y-51250
X42000Y-47250
X42000Y-48250
X42000Y-49250
X42000Y-50250
X42000Y-51250
X45016Y-40750
X45016Y-57750
X46984Y-40750
X46984Y-57750
X50000Y-48500
X51000Y-48500
X51516Y-40750
X51516Y-57750
X51995Y-43250
X51995Y-55250
X52000Y-48500
X53484Y-40750
X53484Y-57750
X54005Y-43250
X54005Y-55250
X54250Y-44500
X54250Y-45500
X54250Y-46500
X54250Y-52000
X54250Y-53000
X54250Y-54000
X56000Y-44500
X56000Y-54000
X56500Y-47250
X56500Y-48250
X56500Y-49250
X56500Y-50250
X56500Y-51250
X57000Y-44500
X57000Y-54000
X57500Y-47250
X57500Y-48250
X57500Y-49250
X57500Y-50250
X57500Y-51250
X58000Y-44500
X58000Y-54000
T4
X41339Y-41339
X41339Y-57087
X57087Y-41339
X57087Y-57087
T5
X45150Y-45500
X45150Y-53000
T0
M30
