%FSLAX36Y36*%
G04 Gerber Fmt 3.6, Leading zero omitted, Abs format (unit inch)*
G04 Created by KiCad (PCBNEW (2014-jul-16 BZR unknown)-product) date Tue 27 Jan 2015 08:42:02 AM PST*
%MOIN*%
G01*
G04 APERTURE LIST*
%ADD10C,0.003937*%
%ADD11R,0.068000X0.068000*%
%ADD12C,0.068000*%
%ADD13R,0.060000X0.060000*%
%ADD14C,0.060000*%
%ADD15C,0.080000*%
%ADD16O,0.137800X0.066900*%
%ADD17R,0.620000X0.380000*%
%ADD18C,0.078700*%
%ADD19C,0.236220*%
%ADD20C,0.035000*%
%ADD21C,0.040000*%
G04 APERTURE END LIST*
D10*
D11*
X5000000Y-4850000D03*
D12*
X5100000Y-4850000D03*
X5200000Y-4850000D03*
D13*
X4100000Y-4725000D03*
D14*
X4200000Y-4725000D03*
X4100000Y-4825000D03*
X4200000Y-4825000D03*
X4100000Y-4925000D03*
X4200000Y-4925000D03*
X4100000Y-5025000D03*
X4200000Y-5025000D03*
X4100000Y-5125000D03*
X4200000Y-5125000D03*
D15*
X4501575Y-5775000D03*
X4698425Y-5775000D03*
X5151575Y-5775000D03*
X5348425Y-5775000D03*
X4698425Y-4075000D03*
X4501575Y-4075000D03*
X5348425Y-4075000D03*
X5151575Y-4075000D03*
D13*
X5650000Y-4725000D03*
D14*
X5750000Y-4725000D03*
X5650000Y-4825000D03*
X5750000Y-4825000D03*
X5650000Y-4925000D03*
X5750000Y-4925000D03*
X5650000Y-5025000D03*
X5750000Y-5025000D03*
X5650000Y-5125000D03*
X5750000Y-5125000D03*
D16*
X5175000Y-5300000D03*
X5175000Y-5400000D03*
X5175000Y-5200000D03*
D17*
X4705000Y-5300000D03*
D16*
X5175000Y-4550000D03*
X5175000Y-4650000D03*
X5175000Y-4450000D03*
D17*
X4705000Y-4550000D03*
D18*
X4825000Y-4850000D03*
X4425000Y-4850000D03*
D15*
X5199500Y-5525000D03*
X5400500Y-5525000D03*
X5199500Y-4325000D03*
X5400500Y-4325000D03*
D11*
X5425000Y-5200000D03*
D12*
X5425000Y-5300000D03*
X5425000Y-5400000D03*
D11*
X5600000Y-5400000D03*
D12*
X5700000Y-5400000D03*
X5800000Y-5400000D03*
D11*
X5800000Y-4450000D03*
D12*
X5700000Y-4450000D03*
X5600000Y-4450000D03*
D11*
X5425000Y-4650000D03*
D12*
X5425000Y-4550000D03*
X5425000Y-4450000D03*
D19*
X5708661Y-5708661D03*
X4133858Y-5708661D03*
X5708661Y-4133858D03*
X4133858Y-4133858D03*
D20*
X4100000Y-4825000D03*
D21*
X5151575Y-4075000D02*
X5151575Y-4168425D01*
X5095000Y-4550000D02*
X5175000Y-4550000D01*
X5060000Y-4515000D02*
X5095000Y-4550000D01*
X5060000Y-4260000D02*
X5060000Y-4515000D01*
X5151575Y-4168425D02*
X5060000Y-4260000D01*
X4576575Y-4150000D02*
X4775000Y-4150000D01*
X4501575Y-4075000D02*
X4576575Y-4150000D01*
X4850000Y-4075000D02*
X4775000Y-4150000D01*
X5151575Y-4075000D02*
X4850000Y-4075000D01*
X5425000Y-4450000D02*
X5425000Y-4400000D01*
X5400000Y-4375000D02*
X5400000Y-4325500D01*
X5425000Y-4400000D02*
X5400000Y-4375000D01*
X5400000Y-4325500D02*
X5400500Y-4325000D01*
X5400000Y-4325500D02*
X5400500Y-4325000D01*
X5175000Y-4450000D02*
X5175000Y-4400000D01*
X5200000Y-4375000D02*
X5200000Y-4325500D01*
X5175000Y-4400000D02*
X5200000Y-4375000D01*
X5200000Y-4325500D02*
X5199500Y-4325000D01*
X5400500Y-5525000D02*
X5400500Y-5475500D01*
X5425000Y-5451000D02*
X5425000Y-5400000D01*
X5400500Y-5475500D02*
X5425000Y-5451000D01*
X4350000Y-5175000D02*
X4350000Y-5800000D01*
X4350000Y-5800000D02*
X4400000Y-5850000D01*
X4400000Y-5850000D02*
X5400000Y-5850000D01*
X5400000Y-5850000D02*
X5525000Y-5725000D01*
X5525000Y-5725000D02*
X5525000Y-5425000D01*
X5525000Y-5425000D02*
X5550000Y-5400000D01*
X5550000Y-5400000D02*
X5600000Y-5400000D01*
X4200000Y-5025000D02*
X4350000Y-5175000D01*
X5700000Y-5325000D02*
X5575000Y-5200000D01*
X5575000Y-5200000D02*
X5575000Y-5100000D01*
X5575000Y-5100000D02*
X5650000Y-5025000D01*
X5700000Y-5400000D02*
X5700000Y-5325000D01*
X4100000Y-4825000D02*
X4200000Y-4825000D01*
X5600000Y-4825000D02*
X5650000Y-4825000D01*
X5575000Y-4800000D02*
X5600000Y-4825000D01*
X5575000Y-4600000D02*
X5575000Y-4800000D01*
X5700000Y-4475000D02*
X5575000Y-4600000D01*
X5700000Y-4450000D02*
X5700000Y-4475000D01*
X5175000Y-4650000D02*
X5250000Y-4650000D01*
X5510000Y-4540000D02*
X5600000Y-4450000D01*
X5510000Y-4690000D02*
X5510000Y-4540000D01*
X5450000Y-4750000D02*
X5510000Y-4690000D01*
X5350000Y-4750000D02*
X5450000Y-4750000D01*
X5250000Y-4650000D02*
X5350000Y-4750000D01*
X5600000Y-4450000D02*
X5600000Y-4326575D01*
X5600000Y-4326575D02*
X5348425Y-4075000D01*
X5175000Y-5300000D02*
X5250000Y-5300000D01*
X5273425Y-5626575D02*
X5273425Y-5700000D01*
X5300000Y-5600000D02*
X5273425Y-5626575D01*
X5300000Y-5350000D02*
X5300000Y-5600000D01*
X5250000Y-5300000D02*
X5300000Y-5350000D01*
X5025000Y-5775000D02*
X5100000Y-5700000D01*
X5165000Y-5700000D02*
X5273425Y-5700000D01*
X5100000Y-5700000D02*
X5165000Y-5700000D01*
X5273425Y-5700000D02*
X5348425Y-5775000D01*
X4698425Y-5775000D02*
X5025000Y-5775000D01*
M02*
