%FSLAX36Y36*%
G04 Gerber Fmt 3.6, Leading zero omitted, Abs format (unit inch)*
G04 Created by KiCad (PCBNEW (2014-jul-16 BZR unknown)-product) date Tue 27 Jan 2015 08:42:02 AM PST*
%MOIN*%
G01*
G04 APERTURE LIST*
%ADD10C,0.003937*%
%ADD11C,0.008000*%
%ADD12C,0.006000*%
%ADD13C,0.010000*%
%ADD14C,0.005906*%
%ADD15C,0.015000*%
%ADD16C,0.009850*%
%ADD17C,0.009900*%
G04 APERTURE END LIST*
D10*
D11*
X4365000Y-4985000D02*
X5475000Y-4985000D01*
D12*
X5107619Y-4738095D02*
X5130476Y-4738095D01*
X5119048Y-4778095D02*
X5119048Y-4738095D01*
X5143810Y-4757143D02*
X5157143Y-4757143D01*
X5162857Y-4778095D02*
X5143810Y-4778095D01*
X5143810Y-4738095D01*
X5162857Y-4738095D01*
X5202857Y-4778095D02*
X5189524Y-4759048D01*
X5180000Y-4778095D02*
X5180000Y-4738095D01*
X5195238Y-4738095D01*
X5199048Y-4740000D01*
X5200952Y-4741905D01*
X5202857Y-4745714D01*
X5202857Y-4751429D01*
X5200952Y-4755238D01*
X5199048Y-4757143D01*
X5195238Y-4759048D01*
X5180000Y-4759048D01*
X5220000Y-4778095D02*
X5220000Y-4738095D01*
X5233333Y-4766667D01*
X5246667Y-4738095D01*
X5246667Y-4778095D01*
X5727857Y-4362143D02*
X5733571Y-4364048D01*
X5735476Y-4365952D01*
X5737381Y-4369762D01*
X5737381Y-4375476D01*
X5735476Y-4379286D01*
X5733571Y-4381190D01*
X5729762Y-4383095D01*
X5714524Y-4383095D01*
X5714524Y-4343095D01*
X5727857Y-4343095D01*
X5731667Y-4345000D01*
X5733571Y-4346905D01*
X5735476Y-4350714D01*
X5735476Y-4354524D01*
X5733571Y-4358333D01*
X5731667Y-4360238D01*
X5727857Y-4362143D01*
X5714524Y-4362143D01*
X5754524Y-4343095D02*
X5754524Y-4375476D01*
X5756429Y-4379286D01*
X5758333Y-4381190D01*
X5762143Y-4383095D01*
X5769762Y-4383095D01*
X5773571Y-4381190D01*
X5775476Y-4379286D01*
X5777381Y-4375476D01*
X5777381Y-4343095D01*
X5794524Y-4381190D02*
X5800238Y-4383095D01*
X5809762Y-4383095D01*
X5813571Y-4381190D01*
X5815476Y-4379286D01*
X5817381Y-4375476D01*
X5817381Y-4371667D01*
X5815476Y-4367857D01*
X5813571Y-4365952D01*
X5809762Y-4364048D01*
X5802143Y-4362143D01*
X5798333Y-4360238D01*
X5796429Y-4358333D01*
X5794524Y-4354524D01*
X5794524Y-4350714D01*
X5796429Y-4346905D01*
X5798333Y-4345000D01*
X5802143Y-4343095D01*
X5811667Y-4343095D01*
X5817381Y-4345000D01*
X5591667Y-4362143D02*
X5597381Y-4364048D01*
X5599286Y-4365952D01*
X5601190Y-4369762D01*
X5601190Y-4375476D01*
X5599286Y-4379286D01*
X5597381Y-4381190D01*
X5593571Y-4383095D01*
X5578333Y-4383095D01*
X5578333Y-4343095D01*
X5591667Y-4343095D01*
X5595476Y-4345000D01*
X5597381Y-4346905D01*
X5599286Y-4350714D01*
X5599286Y-4354524D01*
X5597381Y-4358333D01*
X5595476Y-4360238D01*
X5591667Y-4362143D01*
X5578333Y-4362143D01*
X5637381Y-4383095D02*
X5618333Y-4383095D01*
X5618333Y-4343095D01*
X5650714Y-4383095D02*
X5650714Y-4343095D01*
X5673571Y-4383095D02*
X5656429Y-4360238D01*
X5673571Y-4343095D02*
X5650714Y-4365952D01*
X5281667Y-4497143D02*
X5287381Y-4499048D01*
X5289286Y-4500952D01*
X5291190Y-4504762D01*
X5291190Y-4510476D01*
X5289286Y-4514286D01*
X5287381Y-4516190D01*
X5283571Y-4518095D01*
X5268333Y-4518095D01*
X5268333Y-4478095D01*
X5281667Y-4478095D01*
X5285476Y-4480000D01*
X5287381Y-4481905D01*
X5289286Y-4485714D01*
X5289286Y-4489524D01*
X5287381Y-4493333D01*
X5285476Y-4495238D01*
X5281667Y-4497143D01*
X5268333Y-4497143D01*
X5327381Y-4518095D02*
X5308333Y-4518095D01*
X5308333Y-4478095D01*
X5340714Y-4518095D02*
X5340714Y-4478095D01*
X5363571Y-4518095D02*
X5346429Y-4495238D01*
X5363571Y-4478095D02*
X5340714Y-4500952D01*
X5272857Y-4602143D02*
X5278571Y-4604048D01*
X5280476Y-4605952D01*
X5282381Y-4609762D01*
X5282381Y-4615476D01*
X5280476Y-4619286D01*
X5278571Y-4621190D01*
X5274762Y-4623095D01*
X5259524Y-4623095D01*
X5259524Y-4583095D01*
X5272857Y-4583095D01*
X5276667Y-4585000D01*
X5278571Y-4586905D01*
X5280476Y-4590714D01*
X5280476Y-4594524D01*
X5278571Y-4598333D01*
X5276667Y-4600238D01*
X5272857Y-4602143D01*
X5259524Y-4602143D01*
X5299524Y-4583095D02*
X5299524Y-4615476D01*
X5301429Y-4619286D01*
X5303333Y-4621190D01*
X5307143Y-4623095D01*
X5314762Y-4623095D01*
X5318571Y-4621190D01*
X5320476Y-4619286D01*
X5322381Y-4615476D01*
X5322381Y-4583095D01*
X5339524Y-4621190D02*
X5345238Y-4623095D01*
X5354762Y-4623095D01*
X5358571Y-4621190D01*
X5360476Y-4619286D01*
X5362381Y-4615476D01*
X5362381Y-4611667D01*
X5360476Y-4607857D01*
X5358571Y-4605952D01*
X5354762Y-4604048D01*
X5347143Y-4602143D01*
X5343333Y-4600238D01*
X5341429Y-4598333D01*
X5339524Y-4594524D01*
X5339524Y-4590714D01*
X5341429Y-4586905D01*
X5343333Y-4585000D01*
X5347143Y-4583095D01*
X5356667Y-4583095D01*
X5362381Y-4585000D01*
X5276667Y-5347143D02*
X5282381Y-5349048D01*
X5284286Y-5350952D01*
X5286190Y-5354762D01*
X5286190Y-5360476D01*
X5284286Y-5364286D01*
X5282381Y-5366190D01*
X5278571Y-5368095D01*
X5263333Y-5368095D01*
X5263333Y-5328095D01*
X5276667Y-5328095D01*
X5280476Y-5330000D01*
X5282381Y-5331905D01*
X5284286Y-5335714D01*
X5284286Y-5339524D01*
X5282381Y-5343333D01*
X5280476Y-5345238D01*
X5276667Y-5347143D01*
X5263333Y-5347143D01*
X5322381Y-5368095D02*
X5303333Y-5368095D01*
X5303333Y-5328095D01*
X5335714Y-5368095D02*
X5335714Y-5328095D01*
X5358571Y-5368095D02*
X5341429Y-5345238D01*
X5358571Y-5328095D02*
X5335714Y-5350952D01*
X5267857Y-5247143D02*
X5273571Y-5249048D01*
X5275476Y-5250952D01*
X5277381Y-5254762D01*
X5277381Y-5260476D01*
X5275476Y-5264286D01*
X5273571Y-5266190D01*
X5269762Y-5268095D01*
X5254524Y-5268095D01*
X5254524Y-5228095D01*
X5267857Y-5228095D01*
X5271667Y-5230000D01*
X5273571Y-5231905D01*
X5275476Y-5235714D01*
X5275476Y-5239524D01*
X5273571Y-5243333D01*
X5271667Y-5245238D01*
X5267857Y-5247143D01*
X5254524Y-5247143D01*
X5294524Y-5228095D02*
X5294524Y-5260476D01*
X5296429Y-5264286D01*
X5298333Y-5266190D01*
X5302143Y-5268095D01*
X5309762Y-5268095D01*
X5313571Y-5266190D01*
X5315476Y-5264286D01*
X5317381Y-5260476D01*
X5317381Y-5228095D01*
X5334524Y-5266190D02*
X5340238Y-5268095D01*
X5349762Y-5268095D01*
X5353571Y-5266190D01*
X5355476Y-5264286D01*
X5357381Y-5260476D01*
X5357381Y-5256667D01*
X5355476Y-5252857D01*
X5353571Y-5250952D01*
X5349762Y-5249048D01*
X5342143Y-5247143D01*
X5338333Y-5245238D01*
X5336429Y-5243333D01*
X5334524Y-5239524D01*
X5334524Y-5235714D01*
X5336429Y-5231905D01*
X5338333Y-5230000D01*
X5342143Y-5228095D01*
X5351667Y-5228095D01*
X5357381Y-5230000D01*
X5731667Y-5487143D02*
X5737381Y-5489048D01*
X5739286Y-5490952D01*
X5741190Y-5494762D01*
X5741190Y-5500476D01*
X5739286Y-5504286D01*
X5737381Y-5506190D01*
X5733571Y-5508095D01*
X5718333Y-5508095D01*
X5718333Y-5468095D01*
X5731667Y-5468095D01*
X5735476Y-5470000D01*
X5737381Y-5471905D01*
X5739286Y-5475714D01*
X5739286Y-5479524D01*
X5737381Y-5483333D01*
X5735476Y-5485238D01*
X5731667Y-5487143D01*
X5718333Y-5487143D01*
X5777381Y-5508095D02*
X5758333Y-5508095D01*
X5758333Y-5468095D01*
X5790714Y-5508095D02*
X5790714Y-5468095D01*
X5813571Y-5508095D02*
X5796429Y-5485238D01*
X5813571Y-5468095D02*
X5790714Y-5490952D01*
X5567857Y-5487143D02*
X5573571Y-5489048D01*
X5575476Y-5490952D01*
X5577381Y-5494762D01*
X5577381Y-5500476D01*
X5575476Y-5504286D01*
X5573571Y-5506190D01*
X5569762Y-5508095D01*
X5554524Y-5508095D01*
X5554524Y-5468095D01*
X5567857Y-5468095D01*
X5571667Y-5470000D01*
X5573571Y-5471905D01*
X5575476Y-5475714D01*
X5575476Y-5479524D01*
X5573571Y-5483333D01*
X5571667Y-5485238D01*
X5567857Y-5487143D01*
X5554524Y-5487143D01*
X5594524Y-5468095D02*
X5594524Y-5500476D01*
X5596429Y-5504286D01*
X5598333Y-5506190D01*
X5602143Y-5508095D01*
X5609762Y-5508095D01*
X5613571Y-5506190D01*
X5615476Y-5504286D01*
X5617381Y-5500476D01*
X5617381Y-5468095D01*
X5634524Y-5506190D02*
X5640238Y-5508095D01*
X5649762Y-5508095D01*
X5653571Y-5506190D01*
X5655476Y-5504286D01*
X5657381Y-5500476D01*
X5657381Y-5496667D01*
X5655476Y-5492857D01*
X5653571Y-5490952D01*
X5649762Y-5489048D01*
X5642143Y-5487143D01*
X5638333Y-5485238D01*
X5636429Y-5483333D01*
X5634524Y-5479524D01*
X5634524Y-5475714D01*
X5636429Y-5471905D01*
X5638333Y-5470000D01*
X5642143Y-5468095D01*
X5651667Y-5468095D01*
X5657381Y-5470000D01*
D11*
X5536429Y-4493095D02*
X5513571Y-4493095D01*
X5525000Y-4493095D02*
X5525000Y-4453095D01*
X5521191Y-4458810D01*
X5517381Y-4462619D01*
X5513571Y-4464524D01*
X3986429Y-4493095D02*
X3963571Y-4493095D01*
X3975000Y-4493095D02*
X3975000Y-4453095D01*
X3971191Y-4458810D01*
X3967381Y-4462619D01*
X3963571Y-4464524D01*
D13*
X4372857Y-4004286D02*
X4327143Y-4004286D01*
X5522857Y-4004286D02*
X5477143Y-4004286D01*
X5500000Y-4027143D02*
X5500000Y-3981429D01*
D11*
X3937008Y-5905512D02*
X3937008Y-3937008D01*
X5905512Y-5905512D02*
X3937008Y-5905512D01*
X5905512Y-3937008D02*
X5905512Y-5905512D01*
X3937008Y-3937008D02*
X5905512Y-3937008D01*
D12*
X4989524Y-4928095D02*
X4997143Y-4928095D01*
X5000952Y-4930000D01*
X5004762Y-4933810D01*
X5006667Y-4941429D01*
X5006667Y-4954762D01*
X5004762Y-4962381D01*
X5000952Y-4966190D01*
X4997143Y-4968095D01*
X4989524Y-4968095D01*
X4985714Y-4966190D01*
X4981905Y-4962381D01*
X4980000Y-4954762D01*
X4980000Y-4941429D01*
X4981905Y-4933810D01*
X4985714Y-4930000D01*
X4989524Y-4928095D01*
X5023810Y-4968095D02*
X5023810Y-4928095D01*
X5046667Y-4968095D01*
X5046667Y-4928095D01*
X5134286Y-4928095D02*
X5141905Y-4928095D01*
X5145714Y-4930000D01*
X5149524Y-4933810D01*
X5151429Y-4941429D01*
X5151429Y-4954762D01*
X5149524Y-4962381D01*
X5145714Y-4966190D01*
X5141905Y-4968095D01*
X5134286Y-4968095D01*
X5130476Y-4966190D01*
X5126667Y-4962381D01*
X5124762Y-4954762D01*
X5124762Y-4941429D01*
X5126667Y-4933810D01*
X5130476Y-4930000D01*
X5134286Y-4928095D01*
X5181905Y-4947143D02*
X5168571Y-4947143D01*
X5168571Y-4968095D02*
X5168571Y-4928095D01*
X5187619Y-4928095D01*
X5216190Y-4947143D02*
X5202857Y-4947143D01*
X5202857Y-4968095D02*
X5202857Y-4928095D01*
X5221905Y-4928095D01*
X4848810Y-5743095D02*
X4848810Y-5703095D01*
X4862143Y-5731667D01*
X4875476Y-5703095D01*
X4875476Y-5743095D01*
X4894524Y-5743095D02*
X4894524Y-5703095D01*
X4909762Y-5703095D01*
X4913571Y-5705000D01*
X4915476Y-5706905D01*
X4917381Y-5710714D01*
X4917381Y-5716429D01*
X4915476Y-5720238D01*
X4913571Y-5722143D01*
X4909762Y-5724048D01*
X4894524Y-5724048D01*
X4930714Y-5703095D02*
X4940238Y-5743095D01*
X4947857Y-5714524D01*
X4955476Y-5743095D01*
X4965000Y-5703095D01*
X5003095Y-5743095D02*
X4989762Y-5724048D01*
X4980238Y-5743095D02*
X4980238Y-5703095D01*
X4995476Y-5703095D01*
X4999286Y-5705000D01*
X5001190Y-5706905D01*
X5003095Y-5710714D01*
X5003095Y-5716429D01*
X5001190Y-5720238D01*
X4999286Y-5722143D01*
X4995476Y-5724048D01*
X4980238Y-5724048D01*
X4874524Y-4143095D02*
X4855476Y-4143095D01*
X4855476Y-4103095D01*
X4887857Y-4143095D02*
X4887857Y-4103095D01*
X4903095Y-4103095D01*
X4906905Y-4105000D01*
X4908810Y-4106905D01*
X4910714Y-4110714D01*
X4910714Y-4116429D01*
X4908810Y-4120238D01*
X4906905Y-4122143D01*
X4903095Y-4124048D01*
X4887857Y-4124048D01*
X4924048Y-4103095D02*
X4933571Y-4143095D01*
X4941190Y-4114524D01*
X4948810Y-4143095D01*
X4958333Y-4103095D01*
X4996429Y-4143095D02*
X4983095Y-4124048D01*
X4973571Y-4143095D02*
X4973571Y-4103095D01*
X4988810Y-4103095D01*
X4992619Y-4105000D01*
X4994524Y-4106905D01*
X4996429Y-4110714D01*
X4996429Y-4116429D01*
X4994524Y-4120238D01*
X4992619Y-4122143D01*
X4988810Y-4124048D01*
X4973571Y-4124048D01*
D13*
X5022857Y-4004286D02*
X4977143Y-4004286D01*
X4872857Y-4004286D02*
X4827143Y-4004286D01*
X4850000Y-4027143D02*
X4850000Y-3981429D01*
X4872857Y-5854286D02*
X4827143Y-5854286D01*
X4372857Y-5849286D02*
X4327143Y-5849286D01*
X4350000Y-5872143D02*
X4350000Y-5826429D01*
X5022857Y-5854286D02*
X4977143Y-5854286D01*
X5000000Y-5877143D02*
X5000000Y-5831429D01*
X5517857Y-5864286D02*
X5472143Y-5864286D01*
D12*
X3994762Y-5385143D02*
X4000476Y-5387048D01*
X4002381Y-5388952D01*
X4004286Y-5392762D01*
X4004286Y-5398476D01*
X4002381Y-5402286D01*
X4000476Y-5404190D01*
X3996667Y-5406095D01*
X3981429Y-5406095D01*
X3981429Y-5366095D01*
X3994762Y-5366095D01*
X3998571Y-5368000D01*
X4000476Y-5369905D01*
X4002381Y-5373714D01*
X4002381Y-5377524D01*
X4000476Y-5381333D01*
X3998571Y-5383238D01*
X3994762Y-5385143D01*
X3981429Y-5385143D01*
X4021429Y-5366095D02*
X4021429Y-5398476D01*
X4023333Y-5402286D01*
X4025238Y-5404190D01*
X4029048Y-5406095D01*
X4036667Y-5406095D01*
X4040476Y-5404190D01*
X4042381Y-5402286D01*
X4044286Y-5398476D01*
X4044286Y-5366095D01*
X4061429Y-5404190D02*
X4067143Y-5406095D01*
X4076667Y-5406095D01*
X4080476Y-5404190D01*
X4082381Y-5402286D01*
X4084286Y-5398476D01*
X4084286Y-5394667D01*
X4082381Y-5390857D01*
X4080476Y-5388952D01*
X4076667Y-5387048D01*
X4069048Y-5385143D01*
X4065238Y-5383238D01*
X4063333Y-5381333D01*
X4061429Y-5377524D01*
X4061429Y-5373714D01*
X4063333Y-5369905D01*
X4065238Y-5368000D01*
X4069048Y-5366095D01*
X4078571Y-5366095D01*
X4084286Y-5368000D01*
X4091905Y-5409905D02*
X4122381Y-5409905D01*
X4130000Y-5404190D02*
X4135714Y-5406095D01*
X4145238Y-5406095D01*
X4149048Y-5404190D01*
X4150952Y-5402286D01*
X4152857Y-5398476D01*
X4152857Y-5394667D01*
X4150952Y-5390857D01*
X4149048Y-5388952D01*
X4145238Y-5387048D01*
X4137619Y-5385143D01*
X4133810Y-5383238D01*
X4131905Y-5381333D01*
X4130000Y-5377524D01*
X4130000Y-5373714D01*
X4131905Y-5369905D01*
X4133810Y-5368000D01*
X4137619Y-5366095D01*
X4147143Y-5366095D01*
X4152857Y-5368000D01*
X4170000Y-5406095D02*
X4170000Y-5366095D01*
X4185238Y-5366095D01*
X4189048Y-5368000D01*
X4190952Y-5369905D01*
X4192857Y-5373714D01*
X4192857Y-5379429D01*
X4190952Y-5383238D01*
X4189048Y-5385143D01*
X4185238Y-5387048D01*
X4170000Y-5387048D01*
X4229048Y-5406095D02*
X4210000Y-5406095D01*
X4210000Y-5366095D01*
X4242381Y-5406095D02*
X4242381Y-5366095D01*
X4284286Y-5402286D02*
X4282381Y-5404190D01*
X4276667Y-5406095D01*
X4272857Y-5406095D01*
X4267143Y-5404190D01*
X4263333Y-5400381D01*
X4261429Y-5396571D01*
X4259524Y-5388952D01*
X4259524Y-5383238D01*
X4261429Y-5375619D01*
X4263333Y-5371810D01*
X4267143Y-5368000D01*
X4272857Y-5366095D01*
X4276667Y-5366095D01*
X4282381Y-5368000D01*
X4284286Y-5369905D01*
X4301429Y-5385143D02*
X4314762Y-5385143D01*
X4320476Y-5406095D02*
X4301429Y-5406095D01*
X4301429Y-5366095D01*
X4320476Y-5366095D01*
X4082381Y-5468095D02*
X4069048Y-5449048D01*
X4059524Y-5468095D02*
X4059524Y-5428095D01*
X4074762Y-5428095D01*
X4078571Y-5430000D01*
X4080476Y-5431905D01*
X4082381Y-5435714D01*
X4082381Y-5441429D01*
X4080476Y-5445238D01*
X4078571Y-5447143D01*
X4074762Y-5449048D01*
X4059524Y-5449048D01*
X4099524Y-5447143D02*
X4112857Y-5447143D01*
X4118571Y-5468095D02*
X4099524Y-5468095D01*
X4099524Y-5428095D01*
X4118571Y-5428095D01*
X4130000Y-5428095D02*
X4143333Y-5468095D01*
X4156667Y-5428095D01*
X4170000Y-5464286D02*
X4171905Y-5466190D01*
X4170000Y-5468095D01*
X4168095Y-5466190D01*
X4170000Y-5464286D01*
X4170000Y-5468095D01*
X4232857Y-5447143D02*
X4238571Y-5449048D01*
X4240476Y-5450952D01*
X4242381Y-5454762D01*
X4242381Y-5460476D01*
X4240476Y-5464286D01*
X4238571Y-5466190D01*
X4234762Y-5468095D01*
X4219524Y-5468095D01*
X4219524Y-5428095D01*
X4232857Y-5428095D01*
X4236667Y-5430000D01*
X4238571Y-5431905D01*
X4240476Y-5435714D01*
X4240476Y-5439524D01*
X4238571Y-5443333D01*
X4236667Y-5445238D01*
X4232857Y-5447143D01*
X4219524Y-5447143D01*
X3990000Y-5493905D02*
X3991905Y-5492000D01*
X3995714Y-5490095D01*
X4005238Y-5490095D01*
X4009048Y-5492000D01*
X4010952Y-5493905D01*
X4012857Y-5497714D01*
X4012857Y-5501524D01*
X4010952Y-5507238D01*
X3988095Y-5530095D01*
X4012857Y-5530095D01*
X4047143Y-5490095D02*
X4039524Y-5490095D01*
X4035714Y-5492000D01*
X4033810Y-5493905D01*
X4030000Y-5499619D01*
X4028095Y-5507238D01*
X4028095Y-5522476D01*
X4030000Y-5526286D01*
X4031905Y-5528190D01*
X4035714Y-5530095D01*
X4043333Y-5530095D01*
X4047143Y-5528190D01*
X4049048Y-5526286D01*
X4050952Y-5522476D01*
X4050952Y-5512952D01*
X4049048Y-5509143D01*
X4047143Y-5507238D01*
X4043333Y-5505333D01*
X4035714Y-5505333D01*
X4031905Y-5507238D01*
X4030000Y-5509143D01*
X4028095Y-5512952D01*
X4079524Y-5490095D02*
X4079524Y-5518667D01*
X4077619Y-5524381D01*
X4073810Y-5528190D01*
X4068095Y-5530095D01*
X4064286Y-5530095D01*
X4096667Y-5518667D02*
X4115714Y-5518667D01*
X4092857Y-5530095D02*
X4106191Y-5490095D01*
X4119524Y-5530095D01*
X4132857Y-5530095D02*
X4132857Y-5490095D01*
X4155714Y-5530095D01*
X4155714Y-5490095D01*
X4172857Y-5493905D02*
X4174762Y-5492000D01*
X4178571Y-5490095D01*
X4188095Y-5490095D01*
X4191905Y-5492000D01*
X4193810Y-5493905D01*
X4195714Y-5497714D01*
X4195714Y-5501524D01*
X4193810Y-5507238D01*
X4170952Y-5530095D01*
X4195714Y-5530095D01*
X4220476Y-5490095D02*
X4224286Y-5490095D01*
X4228095Y-5492000D01*
X4230000Y-5493905D01*
X4231905Y-5497714D01*
X4233810Y-5505333D01*
X4233810Y-5514857D01*
X4231905Y-5522476D01*
X4230000Y-5526286D01*
X4228095Y-5528190D01*
X4224286Y-5530095D01*
X4220476Y-5530095D01*
X4216667Y-5528190D01*
X4214762Y-5526286D01*
X4212857Y-5522476D01*
X4210952Y-5514857D01*
X4210952Y-5505333D01*
X4212857Y-5497714D01*
X4214762Y-5493905D01*
X4216667Y-5492000D01*
X4220476Y-5490095D01*
X4271905Y-5530095D02*
X4249048Y-5530095D01*
X4260476Y-5530095D02*
X4260476Y-5490095D01*
X4256667Y-5495810D01*
X4252857Y-5499619D01*
X4249048Y-5501524D01*
X4308095Y-5490095D02*
X4289048Y-5490095D01*
X4287143Y-5509143D01*
X4289048Y-5507238D01*
X4292857Y-5505333D01*
X4302381Y-5505333D01*
X4306190Y-5507238D01*
X4308095Y-5509143D01*
X4310000Y-5512952D01*
X4310000Y-5522476D01*
X4308095Y-5526286D01*
X4306190Y-5528190D01*
X4302381Y-5530095D01*
X4292857Y-5530095D01*
X4289048Y-5528190D01*
X4287143Y-5526286D01*
D13*
X5050000Y-4900000D02*
X5250000Y-4900000D01*
X5250000Y-4900000D02*
X5250000Y-4800000D01*
X5250000Y-4800000D02*
X5050000Y-4800000D01*
X4950000Y-4800000D02*
X5050000Y-4800000D01*
X5050000Y-4800000D02*
X5050000Y-4900000D01*
X4950000Y-4800000D02*
X4950000Y-4900000D01*
X4950000Y-4900000D02*
X5050000Y-4900000D01*
D14*
X3930000Y-4725000D02*
X3960000Y-4705000D01*
X3930000Y-4725000D02*
X3960000Y-4745000D01*
D13*
X3960000Y-5015000D02*
X3980000Y-5015000D01*
X3980000Y-5015000D02*
X3980000Y-4835000D01*
X3980000Y-4835000D02*
X3960000Y-4835000D01*
X4340000Y-4525000D02*
X4340000Y-5325000D01*
X4340000Y-5325000D02*
X3960000Y-5325000D01*
X3960000Y-5325000D02*
X3960000Y-4525000D01*
X3960000Y-4525000D02*
X4340000Y-4525000D01*
D11*
X4403150Y-5609646D02*
X4403150Y-5904921D01*
X4403150Y-5904921D02*
X4796850Y-5904921D01*
X4796850Y-5904921D02*
X4796850Y-5609646D01*
X4796850Y-5609646D02*
X4403150Y-5609646D01*
X5053150Y-5609646D02*
X5053150Y-5904921D01*
X5053150Y-5904921D02*
X5446850Y-5904921D01*
X5446850Y-5904921D02*
X5446850Y-5609646D01*
X5446850Y-5609646D02*
X5053150Y-5609646D01*
X4796850Y-4240354D02*
X4796850Y-3945079D01*
X4796850Y-3945079D02*
X4403150Y-3945079D01*
X4403150Y-3945079D02*
X4403150Y-4240354D01*
X4403150Y-4240354D02*
X4796850Y-4240354D01*
X5446850Y-4240354D02*
X5446850Y-3945079D01*
X5446850Y-3945079D02*
X5053150Y-3945079D01*
X5053150Y-3945079D02*
X5053150Y-4240354D01*
X5053150Y-4240354D02*
X5446850Y-4240354D01*
D14*
X5480000Y-4725000D02*
X5510000Y-4705000D01*
X5480000Y-4725000D02*
X5510000Y-4745000D01*
D13*
X5510000Y-5015000D02*
X5530000Y-5015000D01*
X5530000Y-5015000D02*
X5530000Y-4835000D01*
X5530000Y-4835000D02*
X5510000Y-4835000D01*
X5890000Y-4525000D02*
X5890000Y-5325000D01*
X5890000Y-5325000D02*
X5510000Y-5325000D01*
X5510000Y-5325000D02*
X5510000Y-4525000D01*
X5510000Y-4525000D02*
X5890000Y-4525000D01*
D15*
X5030000Y-5400000D02*
X5085000Y-5400000D01*
X5030000Y-5300000D02*
X5085000Y-5300000D01*
X5030000Y-5200000D02*
X5085000Y-5200000D01*
X4613995Y-5300000D02*
G75*
G03X4613995Y-5300000I-98995J0D01*
G74*
G01*
X4695000Y-5090000D02*
X4380000Y-5090000D01*
X4380000Y-5090000D02*
X4380000Y-5510000D01*
X4380000Y-5510000D02*
X4695000Y-5510000D01*
X5030000Y-5090000D02*
X4695000Y-5090000D01*
X4695000Y-5090000D02*
X4695000Y-5510000D01*
X4695000Y-5510000D02*
X5030000Y-5510000D01*
X5030000Y-5300000D02*
X5030000Y-5510000D01*
X5030000Y-5300000D02*
X5030000Y-5090000D01*
X5030000Y-4650000D02*
X5085000Y-4650000D01*
X5030000Y-4550000D02*
X5085000Y-4550000D01*
X5030000Y-4450000D02*
X5085000Y-4450000D01*
X4613995Y-4550000D02*
G75*
G03X4613995Y-4550000I-98995J0D01*
G74*
G01*
X4695000Y-4340000D02*
X4380000Y-4340000D01*
X4380000Y-4340000D02*
X4380000Y-4760000D01*
X4380000Y-4760000D02*
X4695000Y-4760000D01*
X5030000Y-4340000D02*
X4695000Y-4340000D01*
X4695000Y-4340000D02*
X4695000Y-4760000D01*
X4695000Y-4760000D02*
X5030000Y-4760000D01*
X5030000Y-4550000D02*
X5030000Y-4760000D01*
X5030000Y-4550000D02*
X5030000Y-4340000D01*
D14*
X4525000Y-4850000D02*
X4475000Y-4850000D01*
X4725000Y-4850000D02*
X4775000Y-4850000D01*
X4725000Y-4900000D02*
X4725000Y-4800000D01*
X4725000Y-4800000D02*
X4525000Y-4800000D01*
X4525000Y-4800000D02*
X4525000Y-4900000D01*
X4525000Y-4900000D02*
X4725000Y-4900000D01*
D11*
X5064000Y-5584000D02*
X5536000Y-5584000D01*
X5536000Y-5584000D02*
X5536000Y-5466000D01*
X5536000Y-5466000D02*
X5064000Y-5466000D01*
X5064000Y-5466000D02*
X5064000Y-5584000D01*
X5064000Y-4384000D02*
X5536000Y-4384000D01*
X5536000Y-4384000D02*
X5536000Y-4266000D01*
X5536000Y-4266000D02*
X5064000Y-4266000D01*
X5064000Y-4266000D02*
X5064000Y-4384000D01*
D13*
X5375000Y-5250000D02*
X5375000Y-5450000D01*
X5375000Y-5450000D02*
X5475000Y-5450000D01*
X5475000Y-5450000D02*
X5475000Y-5250000D01*
X5475000Y-5150000D02*
X5475000Y-5250000D01*
X5475000Y-5250000D02*
X5375000Y-5250000D01*
X5475000Y-5150000D02*
X5375000Y-5150000D01*
X5375000Y-5150000D02*
X5375000Y-5250000D01*
X5650000Y-5450000D02*
X5850000Y-5450000D01*
X5850000Y-5450000D02*
X5850000Y-5350000D01*
X5850000Y-5350000D02*
X5650000Y-5350000D01*
X5550000Y-5350000D02*
X5650000Y-5350000D01*
X5650000Y-5350000D02*
X5650000Y-5450000D01*
X5550000Y-5350000D02*
X5550000Y-5450000D01*
X5550000Y-5450000D02*
X5650000Y-5450000D01*
X5750000Y-4400000D02*
X5550000Y-4400000D01*
X5550000Y-4400000D02*
X5550000Y-4500000D01*
X5550000Y-4500000D02*
X5750000Y-4500000D01*
X5850000Y-4500000D02*
X5750000Y-4500000D01*
X5750000Y-4500000D02*
X5750000Y-4400000D01*
X5850000Y-4500000D02*
X5850000Y-4400000D01*
X5850000Y-4400000D02*
X5750000Y-4400000D01*
X5475000Y-4600000D02*
X5475000Y-4400000D01*
X5475000Y-4400000D02*
X5375000Y-4400000D01*
X5375000Y-4400000D02*
X5375000Y-4600000D01*
X5375000Y-4700000D02*
X5375000Y-4600000D01*
X5375000Y-4600000D02*
X5475000Y-4600000D01*
X5375000Y-4700000D02*
X5475000Y-4700000D01*
X5475000Y-4700000D02*
X5475000Y-4600000D01*
D11*
X5286667Y-4828095D02*
X5286667Y-4856667D01*
X5284762Y-4862381D01*
X5280952Y-4866190D01*
X5275238Y-4868095D01*
X5271429Y-4868095D01*
X5326667Y-4868095D02*
X5303810Y-4868095D01*
X5315238Y-4868095D02*
X5315238Y-4828095D01*
X5311429Y-4833810D01*
X5307619Y-4837619D01*
X5303810Y-4839524D01*
X4119524Y-4493095D02*
X4119524Y-4453095D01*
X4142381Y-4493095D01*
X4142381Y-4453095D01*
X4182381Y-4493095D02*
X4159524Y-4493095D01*
X4170952Y-4493095D02*
X4170952Y-4453095D01*
X4167143Y-4458810D01*
X4163333Y-4462619D01*
X4159524Y-4464524D01*
X4319524Y-5793095D02*
X4319524Y-5753095D01*
X4342381Y-5793095D01*
X4342381Y-5753095D01*
X4359524Y-5756905D02*
X4361429Y-5755000D01*
X4365238Y-5753095D01*
X4374762Y-5753095D01*
X4378571Y-5755000D01*
X4380476Y-5756905D01*
X4382381Y-5760714D01*
X4382381Y-5764524D01*
X4380476Y-5770238D01*
X4357619Y-5793095D01*
X4382381Y-5793095D01*
X5459524Y-5793095D02*
X5459524Y-5753095D01*
X5482381Y-5793095D01*
X5482381Y-5753095D01*
X5497619Y-5753095D02*
X5522381Y-5753095D01*
X5509048Y-5768333D01*
X5514762Y-5768333D01*
X5518571Y-5770238D01*
X5520476Y-5772143D01*
X5522381Y-5775952D01*
X5522381Y-5785476D01*
X5520476Y-5789286D01*
X5518571Y-5791190D01*
X5514762Y-5793095D01*
X5503333Y-5793095D01*
X5499524Y-5791190D01*
X5497619Y-5789286D01*
X4324524Y-4093095D02*
X4324524Y-4053095D01*
X4347381Y-4093095D01*
X4347381Y-4053095D01*
X4383571Y-4066429D02*
X4383571Y-4093095D01*
X4374048Y-4051190D02*
X4364524Y-4079762D01*
X4389286Y-4079762D01*
X5464524Y-4093095D02*
X5464524Y-4053095D01*
X5487381Y-4093095D01*
X5487381Y-4053095D01*
X5525476Y-4053095D02*
X5506429Y-4053095D01*
X5504524Y-4072143D01*
X5506429Y-4070238D01*
X5510238Y-4068333D01*
X5519762Y-4068333D01*
X5523571Y-4070238D01*
X5525476Y-4072143D01*
X5527381Y-4075952D01*
X5527381Y-4085476D01*
X5525476Y-4089286D01*
X5523571Y-4091190D01*
X5519762Y-4093095D01*
X5510238Y-4093095D01*
X5506429Y-4091190D01*
X5504524Y-4089286D01*
X5419524Y-4943095D02*
X5419524Y-4903095D01*
X5442381Y-4943095D01*
X5442381Y-4903095D01*
X5478571Y-4903095D02*
X5470952Y-4903095D01*
X5467143Y-4905000D01*
X5465238Y-4906905D01*
X5461429Y-4912619D01*
X5459524Y-4920238D01*
X5459524Y-4935476D01*
X5461429Y-4939286D01*
X5463333Y-4941190D01*
X5467143Y-4943095D01*
X5474762Y-4943095D01*
X5478571Y-4941190D01*
X5480476Y-4939286D01*
X5482381Y-4935476D01*
X5482381Y-4925952D01*
X5480476Y-4922143D01*
X5478571Y-4920238D01*
X5474762Y-4918333D01*
X5467143Y-4918333D01*
X5463333Y-4920238D01*
X5461429Y-4922143D01*
X5459524Y-4925952D01*
X4701190Y-5581905D02*
X4697381Y-5580000D01*
X4693571Y-5576190D01*
X4687857Y-5570476D01*
X4684048Y-5568571D01*
X4680238Y-5568571D01*
X4682143Y-5578095D02*
X4678333Y-5576190D01*
X4674524Y-5572381D01*
X4672619Y-5564762D01*
X4672619Y-5551429D01*
X4674524Y-5543810D01*
X4678333Y-5540000D01*
X4682143Y-5538095D01*
X4689762Y-5538095D01*
X4693571Y-5540000D01*
X4697381Y-5543810D01*
X4699286Y-5551429D01*
X4699286Y-5564762D01*
X4697381Y-5572381D01*
X4693571Y-5576190D01*
X4689762Y-5578095D01*
X4682143Y-5578095D01*
X4737381Y-5578095D02*
X4714524Y-5578095D01*
X4725952Y-5578095D02*
X4725952Y-5538095D01*
X4722143Y-5543810D01*
X4718333Y-5547619D01*
X4714524Y-5549524D01*
D16*
X4955300Y-5389681D02*
X4953424Y-5393433D01*
X4953424Y-5399062D01*
X4955300Y-5404690D01*
X4959052Y-5408443D01*
X4962805Y-5410319D01*
X4970310Y-5412195D01*
X4975938Y-5412195D01*
X4983443Y-5410319D01*
X4987195Y-5408443D01*
X4990948Y-5404690D01*
X4992824Y-5399062D01*
X4992824Y-5395310D01*
X4990948Y-5389681D01*
X4989071Y-5387805D01*
X4975938Y-5387805D01*
X4975938Y-5395310D01*
D17*
D16*
X4990948Y-5211257D02*
X4992824Y-5205629D01*
X4992824Y-5196248D01*
X4990948Y-5192495D01*
X4989071Y-5190619D01*
X4985319Y-5188743D01*
X4981567Y-5188743D01*
X4977814Y-5190619D01*
X4975938Y-5192495D01*
X4974062Y-5196248D01*
X4972186Y-5203752D01*
X4970310Y-5207505D01*
X4968433Y-5209381D01*
X4964681Y-5211257D01*
X4960929Y-5211257D01*
X4957176Y-5209381D01*
X4955300Y-5207505D01*
X4953424Y-5203752D01*
X4953424Y-5194371D01*
X4955300Y-5188743D01*
D17*
D16*
X4992824Y-5310319D02*
X4953424Y-5310319D01*
X4953424Y-5300938D01*
X4955300Y-5295310D01*
X4959052Y-5291557D01*
X4962805Y-5289681D01*
X4970310Y-5287805D01*
X4975938Y-5287805D01*
X4983443Y-5289681D01*
X4987195Y-5291557D01*
X4990948Y-5295310D01*
X4992824Y-5300938D01*
X4992824Y-5310319D01*
D17*
D11*
X4696190Y-4311905D02*
X4692381Y-4310000D01*
X4688571Y-4306190D01*
X4682857Y-4300476D01*
X4679048Y-4298571D01*
X4675238Y-4298571D01*
X4677143Y-4308095D02*
X4673333Y-4306190D01*
X4669524Y-4302381D01*
X4667619Y-4294762D01*
X4667619Y-4281429D01*
X4669524Y-4273810D01*
X4673333Y-4270000D01*
X4677143Y-4268095D01*
X4684762Y-4268095D01*
X4688571Y-4270000D01*
X4692381Y-4273810D01*
X4694286Y-4281429D01*
X4694286Y-4294762D01*
X4692381Y-4302381D01*
X4688571Y-4306190D01*
X4684762Y-4308095D01*
X4677143Y-4308095D01*
X4709524Y-4271905D02*
X4711429Y-4270000D01*
X4715238Y-4268095D01*
X4724762Y-4268095D01*
X4728571Y-4270000D01*
X4730476Y-4271905D01*
X4732381Y-4275714D01*
X4732381Y-4279524D01*
X4730476Y-4285238D01*
X4707619Y-4308095D01*
X4732381Y-4308095D01*
D16*
X4955300Y-4639681D02*
X4953424Y-4643433D01*
X4953424Y-4649062D01*
X4955300Y-4654690D01*
X4959052Y-4658443D01*
X4962805Y-4660319D01*
X4970310Y-4662195D01*
X4975938Y-4662195D01*
X4983443Y-4660319D01*
X4987195Y-4658443D01*
X4990948Y-4654690D01*
X4992824Y-4649062D01*
X4992824Y-4645310D01*
X4990948Y-4639681D01*
X4989071Y-4637805D01*
X4975938Y-4637805D01*
X4975938Y-4645310D01*
D17*
D16*
X4990948Y-4461257D02*
X4992824Y-4455629D01*
X4992824Y-4446248D01*
X4990948Y-4442495D01*
X4989071Y-4440619D01*
X4985319Y-4438743D01*
X4981567Y-4438743D01*
X4977814Y-4440619D01*
X4975938Y-4442495D01*
X4974062Y-4446248D01*
X4972186Y-4453752D01*
X4970310Y-4457505D01*
X4968433Y-4459381D01*
X4964681Y-4461257D01*
X4960929Y-4461257D01*
X4957176Y-4459381D01*
X4955300Y-4457505D01*
X4953424Y-4453752D01*
X4953424Y-4444371D01*
X4955300Y-4438743D01*
D17*
D16*
X4992824Y-4560319D02*
X4953424Y-4560319D01*
X4953424Y-4550938D01*
X4955300Y-4545310D01*
X4959052Y-4541557D01*
X4962805Y-4539681D01*
X4970310Y-4537805D01*
X4975938Y-4537805D01*
X4983443Y-4539681D01*
X4987195Y-4541557D01*
X4990948Y-4545310D01*
X4992824Y-4550938D01*
X4992824Y-4560319D01*
D17*
D11*
X4619514Y-4959828D02*
X4606181Y-4940780D01*
X4596657Y-4959828D02*
X4596657Y-4919828D01*
X4611895Y-4919828D01*
X4615705Y-4921732D01*
X4617610Y-4923637D01*
X4619514Y-4927447D01*
X4619514Y-4933161D01*
X4617610Y-4936970D01*
X4615705Y-4938875D01*
X4611895Y-4940780D01*
X4596657Y-4940780D01*
X4657610Y-4959828D02*
X4634753Y-4959828D01*
X4646181Y-4959828D02*
X4646181Y-4919828D01*
X4642372Y-4925542D01*
X4638562Y-4929351D01*
X4634753Y-4931256D01*
X5293333Y-5448095D02*
X5280000Y-5429048D01*
X5270476Y-5448095D02*
X5270476Y-5408095D01*
X5285714Y-5408095D01*
X5289524Y-5410000D01*
X5291429Y-5411905D01*
X5293333Y-5415714D01*
X5293333Y-5421429D01*
X5291429Y-5425238D01*
X5289524Y-5427143D01*
X5285714Y-5429048D01*
X5270476Y-5429048D01*
X5308571Y-5411905D02*
X5310476Y-5410000D01*
X5314286Y-5408095D01*
X5323810Y-5408095D01*
X5327619Y-5410000D01*
X5329524Y-5411905D01*
X5331429Y-5415714D01*
X5331429Y-5419524D01*
X5329524Y-5425238D01*
X5306667Y-5448095D01*
X5331429Y-5448095D01*
X5293333Y-4438095D02*
X5280000Y-4419048D01*
X5270476Y-4438095D02*
X5270476Y-4398095D01*
X5285714Y-4398095D01*
X5289524Y-4400000D01*
X5291429Y-4401905D01*
X5293333Y-4405714D01*
X5293333Y-4411429D01*
X5291429Y-4415238D01*
X5289524Y-4417143D01*
X5285714Y-4419048D01*
X5270476Y-4419048D01*
X5306667Y-4398095D02*
X5331429Y-4398095D01*
X5318095Y-4413333D01*
X5323810Y-4413333D01*
X5327619Y-4415238D01*
X5329524Y-4417143D01*
X5331429Y-4420952D01*
X5331429Y-4430476D01*
X5329524Y-4434286D01*
X5327619Y-4436190D01*
X5323810Y-4438095D01*
X5312381Y-4438095D01*
X5308571Y-4436190D01*
X5306667Y-4434286D01*
X5411667Y-5083095D02*
X5411667Y-5111667D01*
X5409762Y-5117381D01*
X5405952Y-5121190D01*
X5400238Y-5123095D01*
X5396429Y-5123095D01*
X5428810Y-5086905D02*
X5430714Y-5085000D01*
X5434524Y-5083095D01*
X5444048Y-5083095D01*
X5447857Y-5085000D01*
X5449762Y-5086905D01*
X5451667Y-5090714D01*
X5451667Y-5094524D01*
X5449762Y-5100238D01*
X5426905Y-5123095D01*
X5451667Y-5123095D01*
X5856667Y-5468095D02*
X5856667Y-5496667D01*
X5854762Y-5502381D01*
X5850952Y-5506190D01*
X5845238Y-5508095D01*
X5841429Y-5508095D01*
X5871905Y-5468095D02*
X5896667Y-5468095D01*
X5883333Y-5483333D01*
X5889048Y-5483333D01*
X5892857Y-5485238D01*
X5894762Y-5487143D01*
X5896667Y-5490952D01*
X5896667Y-5500476D01*
X5894762Y-5504286D01*
X5892857Y-5506190D01*
X5889048Y-5508095D01*
X5877619Y-5508095D01*
X5873810Y-5506190D01*
X5871905Y-5504286D01*
X5851667Y-4343095D02*
X5851667Y-4371667D01*
X5849762Y-4377381D01*
X5845952Y-4381190D01*
X5840238Y-4383095D01*
X5836429Y-4383095D01*
X5887857Y-4356429D02*
X5887857Y-4383095D01*
X5878333Y-4341190D02*
X5868810Y-4369762D01*
X5893571Y-4369762D01*
X5411667Y-4718095D02*
X5411667Y-4746667D01*
X5409762Y-4752381D01*
X5405952Y-4756190D01*
X5400238Y-4758095D01*
X5396429Y-4758095D01*
X5449762Y-4718095D02*
X5430714Y-4718095D01*
X5428810Y-4737143D01*
X5430714Y-4735238D01*
X5434524Y-4733333D01*
X5444048Y-4733333D01*
X5447857Y-4735238D01*
X5449762Y-4737143D01*
X5451667Y-4740952D01*
X5451667Y-4750476D01*
X5449762Y-4754286D01*
X5447857Y-4756190D01*
X5444048Y-4758095D01*
X5434524Y-4758095D01*
X5430714Y-4756190D01*
X5428810Y-4754286D01*
X5678185Y-5726757D02*
X5678185Y-5686757D01*
X5678185Y-5705804D02*
X5701042Y-5705804D01*
X5701042Y-5726757D02*
X5701042Y-5686757D01*
X5737233Y-5700090D02*
X5737233Y-5726757D01*
X5727709Y-5684852D02*
X5718185Y-5713423D01*
X5742947Y-5713423D01*
X4103382Y-5726757D02*
X4103382Y-5686757D01*
X4103382Y-5705804D02*
X4126239Y-5705804D01*
X4126239Y-5726757D02*
X4126239Y-5686757D01*
X4141477Y-5686757D02*
X4166239Y-5686757D01*
X4152906Y-5701995D01*
X4158620Y-5701995D01*
X4162430Y-5703900D01*
X4164334Y-5705804D01*
X4166239Y-5709614D01*
X4166239Y-5719138D01*
X4164334Y-5722947D01*
X4162430Y-5724852D01*
X4158620Y-5726757D01*
X4147192Y-5726757D01*
X4143382Y-5724852D01*
X4141477Y-5722947D01*
X5678185Y-4151954D02*
X5678185Y-4111954D01*
X5678185Y-4131001D02*
X5701042Y-4131001D01*
X5701042Y-4151954D02*
X5701042Y-4111954D01*
X5718185Y-4115763D02*
X5720090Y-4113858D01*
X5723900Y-4111954D01*
X5733423Y-4111954D01*
X5737233Y-4113858D01*
X5739138Y-4115763D01*
X5741042Y-4119573D01*
X5741042Y-4123382D01*
X5739138Y-4129096D01*
X5716280Y-4151954D01*
X5741042Y-4151954D01*
X4103382Y-4151954D02*
X4103382Y-4111954D01*
X4103382Y-4131001D02*
X4126239Y-4131001D01*
X4126239Y-4151954D02*
X4126239Y-4111954D01*
X4166239Y-4151954D02*
X4143382Y-4151954D01*
X4154811Y-4151954D02*
X4154811Y-4111954D01*
X4151001Y-4117668D01*
X4147192Y-4121477D01*
X4143382Y-4123382D01*
M02*
